<svg width="18" height="18" viewBox="0 0 18 18" fill="none" xmlns="http://www.w3.org/2000/svg">
<path d="M5.46665 8.2136C5.40263 8.07419 5.388 7.91713 5.42518 7.7683C5.46235 7.61947 5.54912 7.48774 5.67117 7.39482L5.98505 7.1552C6.15271 7.02945 6.2888 6.86639 6.38253 6.67893C6.47625 6.49148 6.52505 6.28478 6.52505 6.07519L6.52505 4.05019C6.52505 3.69215 6.38282 3.34877 6.12964 3.0956C5.87647 2.84243 5.53309 2.70019 5.17505 2.70019L3.15005 2.70019C2.79201 2.70019 2.44863 2.84243 2.19546 3.0956C1.94228 3.34877 1.80005 3.69215 1.80005 4.05019C1.80005 7.27258 3.08013 10.363 5.3587 12.6415C7.63727 14.9201 10.7277 16.2002 13.95 16.2002C14.3081 16.2002 14.6515 16.058 14.9046 15.8048C15.1578 15.5516 15.3 15.2082 15.3 14.8502L15.3 12.8252C15.3 12.4672 15.1578 12.1238 14.9046 11.8706C14.6515 11.6174 14.3081 11.4752 13.95 11.4752L11.925 11.4752C11.7155 11.4752 11.5088 11.524 11.3213 11.6177C11.1339 11.7114 10.9708 11.8475 10.845 12.0152L10.6081 12.3311C10.5135 12.455 10.3789 12.5424 10.2272 12.5783C10.0755 12.6142 9.916 12.5965 9.77585 12.5282C7.90214 11.6057 6.38681 10.0885 5.46665 8.2136Z" stroke="white" stroke-width="1.35" stroke-linecap="round" stroke-linejoin="round"/>
<path d="M9.8999 1.7998C11.5111 1.7998 13.0563 2.43985 14.1956 3.57913C15.3349 4.71841 15.9749 6.26361 15.9749 7.8748" stroke="white" stroke-width="1.35" stroke-linecap="round" stroke-linejoin="round"/>
<path d="M9.8999 4.5C10.795 4.5 11.6535 4.85558 12.2864 5.48851C12.9193 6.12145 13.2749 6.97989 13.2749 7.875" stroke="white" stroke-width="1.35" stroke-linecap="round" stroke-linejoin="round"/>
</svg>
