<svg width="72" height="73" viewBox="0 0 72 73" fill="none" xmlns="http://www.w3.org/2000/svg">
<path d="M13.5 20.6533C28.5 20.6533 22.5 20.6533 37.5 20.6533C38.3284 20.6533 39 19.9683 39 19.1235C39 18.2787 38.3284 17.5938 37.5 17.5938C22.5 17.5938 28.5 17.5938 13.5 17.5938C12.6716 17.5938 12 18.2787 12 19.1235C12 19.9683 12.6716 20.6533 13.5 20.6533ZM58.5 52.3464H49.9831C49.2934 49.1529 46.4917 46.7525 43.1609 46.7525C39.8283 46.7525 37.0279 49.1525 36.3385 52.3464H13.5C12.6716 52.3464 12 53.0312 12 53.8761C12 54.721 12.6716 55.4059 13.5 55.4059H36.338C37.0263 58.6011 39.8242 60.9999 43.1609 60.9999C46.4977 60.9999 49.2955 58.6011 49.9838 55.4059H58.5C59.3284 55.4059 60 54.721 60 53.8761C60 53.0312 59.3284 52.3464 58.5 52.3464ZM43.1609 57.9403C40.9666 57.9403 39.1808 56.1223 39.1759 53.8857L39.176 53.8801C39.176 53.8746 39.1761 53.8691 39.1761 53.8637C39.1826 51.6296 40.9702 49.812 43.1609 49.812C45.3486 49.812 47.1362 51.627 47.1457 53.86L47.1459 53.8824C47.1427 56.1207 45.3563 57.9403 43.1609 57.9403ZM58.5 34.9701H35.662C34.9737 31.7749 32.1758 29.3762 28.8391 29.3762C25.5023 29.3762 22.7045 31.7749 22.0162 34.9701H13.5C12.6716 34.9701 12 35.6551 12 36.4999C12 37.3448 12.6716 38.0296 13.5 38.0296H22.0169C22.7066 41.2231 25.5083 43.6235 28.8391 43.6235C32.1717 43.6235 34.9721 41.2235 35.6615 38.0296H58.5C59.3284 38.0296 60 37.3448 60 36.4999C60 35.6551 59.3284 34.9701 58.5 34.9701ZM32.824 36.4958C32.824 36.5014 32.8239 36.5068 32.8239 36.5123C32.8174 38.7464 31.0298 40.5639 28.8391 40.5639C26.6514 40.5639 24.8638 38.7489 24.8543 36.5159L24.8541 36.4936C24.8573 34.2553 26.6438 32.4358 28.8391 32.4358C31.0334 32.4358 32.8192 34.2537 32.8241 36.4904L32.824 36.4958Z" fill="#878D9C" stroke="#878D9C" stroke-width="0.771429"/>
<path d="M56.2812 14.7188L46.7188 24.2812" stroke="#878D9C" stroke-width="4" stroke-linecap="round" stroke-linejoin="round"/>
<path d="M56.2812 24.2812L46.7188 14.7188" stroke="#878D9C" stroke-width="4" stroke-linecap="round" stroke-linejoin="round"/>
</svg>
