<svg width="72" height="72" viewBox="0 0 72 72" fill="none" xmlns="http://www.w3.org/2000/svg">
<path d="M30.8703 11.5806L5.46031 54.0006C4.93641 54.9079 4.65921 55.9365 4.65627 56.9842C4.65334 58.0318 4.92478 59.062 5.44359 59.9722C5.96239 60.8824 6.71048 61.6409 7.61343 62.1722C8.51638 62.7035 9.5427 62.9891 10.5903 63.0006H61.4103C62.4579 62.9891 63.4842 62.7035 64.3872 62.1722C65.2901 61.6409 66.0382 60.8824 66.557 59.9722C67.0758 59.062 67.3473 58.0318 67.3443 56.9842C67.3414 55.9365 67.0642 54.9079 66.5403 54.0006L41.1303 11.5806C40.5955 10.6989 39.8425 9.96997 38.9439 9.46407C38.0453 8.95816 37.0315 8.69238 36.0003 8.69238C34.9691 8.69238 33.9553 8.95816 33.0567 9.46407C32.1581 9.96997 31.4051 10.6989 30.8703 11.5806Z" stroke="#878D9C" stroke-width="4" stroke-linecap="round" stroke-linejoin="round"/>
<path d="M36 27V39" stroke="#878D9C" stroke-width="4" stroke-linecap="round" stroke-linejoin="round"/>
<path d="M36 50.9995H36.0308" stroke="#878D9C" stroke-width="4" stroke-linecap="round" stroke-linejoin="round"/>
</svg>
