<svg width="28" height="28" viewBox="0 0 28 28" fill="none" xmlns="http://www.w3.org/2000/svg">
<path d="M2.75 7.23666H14.169C14.5131 8.80318 15.9121 9.97922 17.5805 9.97922C19.2488 9.97922 20.6478 8.80322 20.9919 7.23666H25.25C25.6642 7.23666 26 6.90085 26 6.48666C26 6.07247 25.6642 5.73666 25.25 5.73666H20.9915C20.6467 4.17094 19.2459 2.99414 17.5805 2.99414C15.9141 2.99414 14.5139 4.17075 14.1693 5.73666H2.75C2.33581 5.73666 2 6.07247 2 6.48666C2 6.90085 2.33581 7.23666 2.75 7.23666ZM15.588 6.48863C15.588 6.48596 15.588 6.48324 15.588 6.48057C15.5913 5.38524 16.4851 4.49419 17.5805 4.49419C18.6743 4.49419 19.5681 5.38402 19.5728 6.47883L19.573 6.48985C19.5712 7.58705 18.6781 8.47927 17.5805 8.47927C16.4833 8.47927 15.5904 7.58794 15.5879 6.49139L15.588 6.48863ZM25.25 22.7748H20.9915C20.6467 21.2092 19.2459 20.0323 17.5805 20.0323C15.9141 20.0323 14.5139 21.209 14.1693 22.7748H2.75C2.33581 22.7748 2 23.1106 2 23.5248C2 23.9391 2.33581 24.2748 2.75 24.2748H14.169C14.5131 25.8414 15.9121 27.0174 17.5805 27.0174C19.2488 27.0174 20.6478 25.8414 20.9919 24.2748H25.25C25.6642 24.2748 26 23.9391 26 23.5248C26 23.1106 25.6642 22.7748 25.25 22.7748ZM17.5805 25.5174C16.4833 25.5174 15.5904 24.6261 15.5879 23.5295L15.588 23.5268C15.588 23.5241 15.588 23.5214 15.588 23.5187C15.5913 22.4234 16.4851 21.5323 17.5805 21.5323C18.6743 21.5323 19.5681 22.4222 19.5728 23.5169L19.573 23.5279C19.5714 24.6253 18.6782 25.5174 17.5805 25.5174ZM25.25 14.2558H13.831C13.4869 12.6893 12.0879 11.5133 10.4195 11.5133C8.75117 11.5133 7.35223 12.6893 7.00808 14.2558H2.75C2.33581 14.2558 2 14.5916 2 15.0058C2 15.42 2.33581 15.7558 2.75 15.7558H7.00845C7.35331 17.3214 8.75413 18.4983 10.4195 18.4983C12.0859 18.4983 13.4861 17.3216 13.8307 15.7558H25.25C25.6642 15.7558 26 15.42 26 15.0058C26 14.5916 25.6642 14.2558 25.25 14.2558ZM12.412 15.0038C12.412 15.0065 12.412 15.0092 12.412 15.0119C12.4087 16.1072 11.5149 16.9982 10.4195 16.9982C9.32572 16.9982 8.43191 16.1084 8.42717 15.0136L8.42703 15.0027C8.42867 13.9053 9.32188 13.0133 10.4195 13.0133C11.5167 13.0133 12.4096 13.9045 12.4121 15.0011L12.412 15.0038Z" fill="#22293A" stroke="#22293A" stroke-width="0.3"/>
</svg>
