<svg width="18" height="19" viewBox="0 0 18 19" fill="none" xmlns="http://www.w3.org/2000/svg">
<path d="M15.6724 7.73188L11.1214 3.17755C10.5581 2.61561 9.7952 2.30005 8.9998 2.30005C8.20441 2.30005 7.44146 2.61561 6.87821 3.17755L2.32721 7.73188C2.15947 7.89865 2.02647 8.09708 1.93594 8.31566C1.84541 8.53424 1.79914 8.76863 1.79981 9.00524V14.899C1.79981 15.3766 1.98945 15.8348 2.32702 16.1725C2.66458 16.5103 3.12242 16.7 3.59981 16.7H14.3998C14.8772 16.7 15.335 16.5103 15.6726 16.1725C16.0102 15.8348 16.1998 15.3766 16.1998 14.899V9.00524C16.2005 8.76863 16.1542 8.53424 16.0637 8.31566C15.9731 8.09708 15.8401 7.89865 15.6724 7.73188ZM10.7998 15.4993H7.19981V13.1375C7.19981 12.6598 7.38945 12.2017 7.72701 11.864C8.06458 11.5262 8.52242 11.3364 8.9998 11.3364C9.47719 11.3364 9.93503 11.5262 10.2726 11.864C10.6102 12.2017 10.7998 12.6598 10.7998 13.1375V15.4993ZM14.9998 14.899C14.9998 15.0582 14.9366 15.2109 14.8241 15.3235C14.7115 15.4361 14.5589 15.4993 14.3998 15.4993H11.9998V13.1375C11.9998 12.3414 11.6837 11.5779 11.1211 11.0149C10.5585 10.452 9.79545 10.1357 8.9998 10.1357C8.20416 10.1357 7.44109 10.452 6.87849 11.0149C6.31588 11.5779 5.99981 12.3414 5.99981 13.1375V15.4993H3.59981C3.44068 15.4993 3.28807 15.4361 3.17555 15.3235C3.06302 15.2109 2.99981 15.0582 2.99981 14.899V9.00524C3.00037 8.84613 3.06352 8.69365 3.17561 8.58079L7.72661 4.02826C8.06483 3.69142 8.5226 3.50231 8.9998 3.50231C9.47701 3.50231 9.93478 3.69142 10.273 4.02826L14.824 8.58259C14.9356 8.695 14.9988 8.84676 14.9998 9.00524V14.899Z" fill="white"/>
</svg>
