<svg width="18" height="19" viewBox="0 0 18 19" fill="none" xmlns="http://www.w3.org/2000/svg">
<path d="M15 8C15 11.7448 10.8457 15.6447 9.45075 16.8492C9.32079 16.947 9.1626 16.9998 9 16.9998C8.8374 16.9998 8.67921 16.947 8.54925 16.8492C7.15425 15.6447 3 11.7448 3 8C3 6.4087 3.63214 4.88258 4.75736 3.75736C5.88258 2.63214 7.4087 2 9 2C10.5913 2 12.1174 2.63214 13.2426 3.75736C14.3679 4.88258 15 6.4087 15 8Z" stroke="#878D9C" stroke-width="1.35" stroke-linecap="round" stroke-linejoin="round"/>
<path d="M9 10.25C10.2426 10.25 11.25 9.24264 11.25 8C11.25 6.75736 10.2426 5.75 9 5.75C7.75736 5.75 6.75 6.75736 6.75 8C6.75 9.24264 7.75736 10.25 9 10.25Z" stroke="#878D9C" stroke-width="1.35" stroke-linecap="round" stroke-linejoin="round"/>
</svg>
