<svg width="28" height="28" viewBox="0 0 28 28" fill="none" xmlns="http://www.w3.org/2000/svg">
<path d="M3.5 8.17253V5.83919C3.5 5.22035 3.74583 4.62686 4.18342 4.18928C4.621 3.75169 5.21449 3.50586 5.83333 3.50586H8.16667" stroke="#22293A" stroke-width="2" stroke-linecap="round" stroke-linejoin="round"/>
<path d="M19.8335 3.50586H22.1668C22.7857 3.50586 23.3792 3.75169 23.8167 4.18928C24.2543 4.62686 24.5002 5.22035 24.5002 5.83919V8.17253" stroke="#22293A" stroke-width="2" stroke-linecap="round" stroke-linejoin="round"/>
<path d="M24.5002 19.8394V22.1727C24.5002 22.7915 24.2543 23.385 23.8167 23.8226C23.3792 24.2602 22.7857 24.506 22.1668 24.506H19.8335" stroke="#22293A" stroke-width="2" stroke-linecap="round" stroke-linejoin="round"/>
<path d="M8.16667 24.506H5.83333C5.21449 24.506 4.621 24.2602 4.18342 23.8226C3.74583 23.385 3.5 22.7915 3.5 22.1727V19.8394" stroke="#22293A" stroke-width="2" stroke-linecap="round" stroke-linejoin="round"/>
<path d="M8.1665 14.0059H19.8332" stroke="#22293A" stroke-width="2" stroke-linecap="round" stroke-linejoin="round"/>
</svg>
