<svg width="24" height="25" viewBox="0 0 24 25" fill="none" xmlns="http://www.w3.org/2000/svg">
<path d="M2 10.5L2 16.8913C2 17.2275 2.27252 17.5 2.6087 17.5H9C12.866 17.5 16 14.366 16 10.5C16 6.63401 12.866 3.5 9 3.5C5.13401 3.5 2 6.63401 2 10.5Z" stroke="#878D9C" stroke-width="2"/>
<path d="M7 7.83532C7.16131 7.3901 7.47969 7.01467 7.89877 6.77553C8.31784 6.5364 8.81056 6.44898 9.28966 6.52877C9.76875 6.60856 10.2033 6.85041 10.5163 7.21147C10.8294 7.57254 11.0007 8.02952 11 8.50149C11 9.83383 8.94168 10.5 8.94168 10.5V11" stroke="#878D9C" stroke-width="2" stroke-linecap="round" stroke-linejoin="round"/>
<path d="M11 20.4167L11.5848 21.0259C11.9906 21.4485 12.4791 21.783 13.0199 22.0083V22.0083C13.7989 22.3329 14.6345 22.5 15.4784 22.5H17H20C20.5523 22.5 21 22.0523 21 21.5V15.8333V15.7475C21 14.1208 19.8089 12.7394 18.2 12.5V12.5" stroke="#878D9C" stroke-width="2"/>
<circle cx="9" cy="13.5" r="1" fill="#878D9C"/>
</svg>
