<svg width="28" height="28" viewBox="0 0 28 28" fill="none" xmlns="http://www.w3.org/2000/svg">
<path d="M20.9995 5.83301V8.07715C21.0016 8.38371 20.9231 8.68544 20.772 8.95215L19.0474 11.96L19.0454 11.9619C18.825 12.3508 18.6975 12.7849 18.6714 13.2295L18.6665 13.417V25.667C18.6664 26.131 18.4819 26.5762 18.1538 26.9043C17.8256 27.2324 17.3805 27.417 16.9165 27.417H11.0835C10.6195 27.417 10.1744 27.2323 9.84619 26.9043C9.51808 26.5762 9.33358 26.131 9.3335 25.667V13.4404C9.33639 12.9307 9.20496 12.4288 8.95361 11.9854L8.95264 11.9834L7.22607 8.97266C7.07597 8.70666 6.9974 8.40605 6.99951 8.10059V5.83301H20.9995ZM13.9995 9.91699C13.381 9.91709 12.7876 10.1623 12.3501 10.5996C11.9125 11.0372 11.6665 11.6312 11.6665 12.25V14.583C11.6665 15.2018 11.9125 15.7958 12.3501 16.2334C12.7876 16.6708 13.3809 16.9169 13.9995 16.917C14.6183 16.917 15.2123 16.671 15.6499 16.2334C16.0875 15.7958 16.3335 15.2018 16.3335 14.583V12.25C16.3335 11.6312 16.0875 11.0372 15.6499 10.5996C15.2123 10.1621 14.6183 9.91699 13.9995 9.91699ZM7.5835 0.583008H20.4165C20.571 0.583008 20.7193 0.644732 20.8286 0.753906C20.938 0.863301 20.9995 1.01228 20.9995 1.16699V2.91699H6.99951V1.16699C6.99951 1.0123 7.06103 0.8633 7.17041 0.753906C7.27981 0.64451 7.42879 0.583008 7.5835 0.583008Z" fill="#22293A" stroke="#22293A" stroke-width="1.16667"/>
</svg>
